<svg xmlns="http://www.w3.org/2000/svg" viewBox="0 0 24 24" width="24" height="24">
  <path fill="none" d="M0 0h24v24H0z"/>
  <path d="M12 .296c-6.63 0-12 5.373-12 12 0 5.303 3.438 9.8 8.207 11.387.6.113.793-.262.793-.583 0-.288-.01-1.05-.015-2.06-3.338.724-4.042-1.562-4.042-1.562-.546-1.386-1.332-1.756-1.332-1.756-1.09-.745.083-.73.083-.73 1.205.086 1.838 1.24 1.838 1.24 1.07 1.834 2.81 1.303 3.495.997.108-.775.418-1.303.762-1.603-2.665-.3-5.466-1.332-5.466-5.93 0-1.31.465-2.383 1.235-3.223-.124-.3-.537-1.523.116-3.176 0 0 1.007-.322 3.3 1.23.958-.266 1.982-.398 3.002-.402 1.02.004 2.044.136 3.004.402 2.291-1.552 3.297-1.23 3.297-1.23.655 1.653.244 2.876.12 3.176.77.84 1.233 1.913 1.233 3.223 0 4.61-2.805 5.625-5.475 5.92.43.372.81 1.102.81 2.217 0 1.605-.015 2.896-.015 3.292 0 .322.19.702.8.583C20.565 22.092 24 17.593 24 12.296c0-6.627-5.373-12-12-12z"/>
</svg>